<svg width="255" height="264" viewBox="0 0 255 264" fill="none" xmlns="http://www.w3.org/2000/svg">
    <path d="M246.655 125.493C242.561 125.371 239.033 128.58 238.032 132.991C231.695 133.494 224.454 133.665 216.506 133.153C212.085 132.861 207.882 132.389 203.952 131.805C203.974 131.033 203.984 130.254 203.984 129.474C203.984 125.681 203.712 121.952 203.211 118.304C205.215 116.736 207.719 115.088 210.757 113.675C216.016 111.205 220.937 110.328 224.737 110.076C226.599 114.405 230.878 116.924 234.972 115.827C239.589 114.593 242.235 109.255 240.863 103.903C239.502 98.549 234.667 95.2025 230.051 96.4367C225.848 97.5659 223.278 102.099 223.888 106.948C220.567 108.882 215.624 110.977 209.505 111.131C206.489 111.213 203.843 110.798 201.698 110.263C200.337 104.601 198.388 99.1744 195.895 94.0576C198.53 91.6204 201.644 89.0369 205.291 86.5427C210.572 82.9204 215.667 80.3292 220.143 78.4683C223.061 81.9622 227.71 83.1238 231.303 80.996C235.43 78.5577 236.584 72.6847 233.894 67.8919C231.205 63.1001 225.663 61.199 221.536 63.644C217.954 65.764 216.604 70.4753 218.085 74.8136C214.241 77.8673 209.516 81.092 203.843 83.9681C199.989 85.934 196.297 87.4285 192.955 88.5655C190.222 83.8788 187.032 79.5082 183.439 75.5195C184.821 70.386 187.151 64.3913 191.126 58.3798C194.86 52.7593 198.998 48.6568 202.515 45.7728C206.391 48.2345 211.269 47.8526 214.045 44.6112C217.203 40.9398 216.484 35.002 212.423 31.3474C208.383 27.6838 202.547 27.6904 199.401 31.363C196.624 34.6044 196.842 39.6005 199.727 43.2462C197.452 47.0975 194.011 51.8736 188.959 56.423C183.384 61.4426 177.788 64.4483 173.519 66.2354C168.663 62.4255 163.372 59.1919 157.721 56.6341C158.537 54.3019 159.626 51.9551 161.052 49.6486C162.196 47.8202 163.426 46.2118 164.667 44.8067C168.968 46.6016 173.792 45.3104 175.958 41.5496C178.397 37.3499 176.612 31.6467 171.973 28.8208C167.335 25.9938 161.608 27.1062 159.169 31.3138C157.035 35.0109 158.156 39.8674 161.608 42.9056C160.889 44.8557 160.018 46.8786 158.973 48.9405C157.786 51.3129 156.501 53.4988 155.14 55.5205C154.563 55.2848 153.997 55.058 153.42 54.8469C146.691 52.2634 139.516 50.6315 132.036 50.0786C130.805 46.6831 129.738 42.9201 128.987 38.7873C127.462 30.3543 127.746 23.0149 128.453 17.5027C132.852 16.6382 136.14 13.0975 136.14 8.85415C136.14 3.96412 131.774 -7.86462e-06 126.385 -7.86462e-06C120.984 -7.86462e-06 116.607 3.96412 116.607 8.85415C116.607 13.1701 120.015 16.7599 124.523 17.544C125.503 22.9769 126.145 30.5811 124.643 39.3961C123.967 43.2764 122.977 46.8127 121.822 50.0139C114.647 50.4283 107.755 51.8479 101.244 54.1354C100.34 52.6588 99.5235 51.1085 98.794 49.28C97.3568 45.6589 96.7361 42.2656 96.4857 39.4408C100.699 37.1902 102.866 32.4687 101.385 28.2924C99.7521 23.6995 94.3189 21.5137 89.2451 23.4125C84.1821 25.3113 81.3947 30.5732 83.0388 35.1673C84.4543 39.1302 88.6898 41.2938 93.0777 40.5934C94.3625 43.2976 95.5929 46.415 96.5511 49.9569C97.0737 51.8322 97.4548 53.6663 97.7488 55.4602C91.8365 57.8627 86.2944 60.9958 81.1988 64.7454C78.5203 62.7561 75.7765 60.4473 73.0653 57.7421C66.8264 51.5128 62.6671 45.1238 59.9341 40.007C62.961 36.5713 63.4946 31.6522 60.9577 28.2634C58.0505 24.3853 52.2253 23.9765 47.9463 27.3486C43.6781 30.7218 42.5676 36.5981 45.4638 40.4751C48.0443 43.9008 52.8786 44.6134 56.929 42.4063C60.8706 46.0331 65.9989 51.753 69.9622 59.976C71.7805 63.7368 73.0435 67.3937 73.9364 70.8038C73.1197 71.5745 72.2922 72.3697 71.4974 73.1806C67.5232 77.272 63.9627 81.8024 60.9141 86.7047C59.1175 86.1741 57.2557 85.5319 55.3502 84.7455C49.1549 82.1866 44.3532 78.924 40.869 76.0814C42.3498 71.6605 40.9017 66.891 37.2215 64.8224C33.0513 62.4712 27.5637 64.4997 24.9723 69.3528C22.37 74.2038 23.6549 80.0432 27.8468 82.3933C31.5161 84.4596 36.198 83.1394 39.0398 79.4937C43.2644 80.9926 48.5342 83.3974 53.9674 87.3458C55.5898 88.5253 57.0706 89.7383 58.4534 90.958C54.1526 98.9085 51.1474 107.696 49.7211 117.024C46.0082 117.349 42.0014 117.506 37.7006 117.37C31.5597 117.176 26.0175 116.438 21.1723 115.477C21.0634 110.599 17.8841 106.515 13.5724 106.05C8.82512 105.539 4.52432 109.587 3.95814 115.09C3.40284 120.593 6.78906 125.468 11.5254 125.977C15.75 126.431 19.6044 123.273 20.813 118.694C25.778 118.797 31.3527 119.253 37.3956 120.319C41.5876 121.058 45.4529 121.999 49.0351 123.046C48.8609 125.165 48.7847 127.307 48.7847 129.474C48.7847 134.62 49.2529 139.652 50.1675 144.531C46.0518 147.322 40.3899 150.487 33.171 152.71C26.845 154.659 21.1506 155.323 16.6102 155.466C14.977 151.127 10.9265 148.421 6.8217 149.233C2.15068 150.16 -0.821763 155.315 0.201724 160.748C1.22521 166.182 5.85266 169.834 10.5237 168.907C14.5741 168.105 17.3288 164.143 17.3397 159.575C21.989 158.025 27.4765 156.569 33.7155 155.622C40.8799 154.534 47.3148 154.378 52.7371 154.619C54.9038 161.352 57.9526 167.676 61.709 173.465C59.9342 174.905 57.9634 176.326 55.7313 177.654C51.4741 180.198 47.391 181.781 43.8414 182.804C41.446 178.874 36.9601 177.028 33.084 178.635C28.6743 180.471 26.7253 186.116 28.7505 191.242C30.0244 194.458 32.5613 196.717 35.3705 197.489C37.0255 197.951 38.7785 197.895 40.4226 197.213C40.9017 197.01 41.3699 196.757 41.7945 196.457C45.0174 194.265 46.3893 189.721 45.0283 185.387C48.3818 183.612 52.3016 181.854 56.8093 180.404C59.7164 179.475 62.482 178.795 65.0843 178.291C67.4579 181.44 70.0711 184.396 72.8693 187.123C73.1307 187.384 73.4028 187.644 73.6642 187.886C71.7696 192.225 68.9169 197.497 64.616 202.841C60.4023 208.073 56.0253 211.882 52.3342 214.573C48.6431 211.882 43.7979 211.94 40.8254 214.953C37.4283 218.389 37.755 224.368 41.5549 228.308C45.3331 232.238 51.1692 232.646 54.5554 229.209C57.5061 226.227 57.6476 221.322 55.1433 217.512C58.0396 213.637 61.8178 209.267 66.6413 204.953C71.8349 200.324 76.9524 196.896 81.4165 194.369C87.3179 198.674 93.8399 202.159 100.797 204.653C100.525 207.341 100.057 210.241 99.284 213.288C97.6072 219.925 95.1029 225.245 92.8273 229.161C88.3523 228.242 83.9316 230.338 82.4182 234.352C80.7087 238.909 83.3981 244.221 88.4285 246.219C93.4479 248.217 98.9138 246.138 100.645 241.573C102.137 237.609 100.307 233.076 96.4857 230.654C97.5636 225.935 99.2731 220.354 101.973 214.359C103.302 211.436 104.706 208.771 106.144 206.343C111.511 207.83 117.097 208.74 122.868 208.991C123.804 213.622 124.566 218.804 124.936 224.465C125.492 232.888 125.045 240.346 124.261 246.503C119.884 247.373 116.607 250.914 116.607 255.147C116.607 260.037 120.973 264 126.385 264C131.774 264 136.14 260.037 136.14 255.147C136.14 250.931 132.885 247.397 128.53 246.511C127.8 240.216 127.408 232.776 127.822 224.465C128.105 218.859 128.726 213.686 129.509 209.007C135.541 208.771 141.388 207.822 146.974 206.237C147.453 207.081 147.921 207.959 148.379 208.862C151.417 214.815 153.05 220.396 153.932 224.863C150.045 227.179 148.063 231.679 149.468 235.692C151.057 240.297 156.479 242.523 161.564 240.67C166.638 238.81 169.469 233.571 167.869 228.966C166.453 224.88 162.021 222.669 157.492 223.515C155.412 219.851 152.995 214.319 152.157 207.236C152.048 206.358 151.972 205.498 151.928 204.653C158.145 202.444 164.003 199.43 169.393 195.742C172.866 198.641 176.525 202.102 180.161 206.212C185.758 212.532 189.83 218.763 192.77 224.059C189.786 227.487 189.275 232.369 191.79 235.74C194.708 239.615 200.522 240.021 204.801 236.649C209.069 233.279 210.18 227.406 207.284 223.524C204.769 220.176 200.076 219.412 196.091 221.452C191.801 216.992 187.043 211.347 182.459 204.409C179.497 199.925 177.047 195.572 175.033 191.485C177.2 189.69 179.268 187.781 181.25 185.758C184.473 182.444 187.424 178.846 190.037 174.996C194.86 176.377 200.424 178.4 206.325 181.437C212.02 184.354 216.767 187.562 220.589 190.551C219.141 194.89 220.513 199.584 224.106 201.68C228.243 204.109 233.764 202.175 236.442 197.375C239.121 192.566 237.923 186.709 233.785 184.28C230.171 182.161 225.478 183.372 222.582 186.929C218.313 185.263 213.131 182.737 207.763 178.862C202.188 174.841 197.974 170.528 194.926 166.807C196.983 162.844 198.725 158.677 200.119 154.339C202.427 154.42 204.877 154.631 207.403 155.021C213.925 156.029 219.359 157.921 223.54 159.805C223.18 164.436 225.728 168.676 229.768 169.74C234.384 170.959 239.219 167.603 240.569 162.243C241.908 156.882 239.262 151.553 234.635 150.334C230.584 149.261 226.349 151.732 224.465 155.995C220.034 155.622 214.339 154.622 208.122 152.154C205.77 151.211 203.593 150.163 201.611 149.067C202.602 145.047 203.299 140.911 203.658 136.671C207.676 136.338 211.944 136.127 216.441 136.118C224.367 136.094 231.575 136.678 237.901 137.54C238.663 142 242.006 145.395 246.089 145.526C250.858 145.663 254.854 141.293 254.995 135.761C255.148 130.23 251.413 125.632 246.655 125.493Z" fill="#FA5752" fill-opacity="0.92"/>
</svg>
